' Generated by UML Generator
' Encoded: dHbTSzisyjs_Wezq8tkSvfhUUAwPKXAjif4bXQJgwsKo6eY2PJGamID1sMuc_kst04WGIz5EvbuiOh-nkrWirhzMWfIYpjAJwZFB2rAIp4bIKbMU42NRre862SyZzZTrBaxks8uw2IkJb9wSA2edObcT4i5uViFo7RztlfmupbEHafnUEYlvOzP_C7hVmEIdyukJmr-pTaybPMNaJNWkIfvMbvQE5jRm7YEKaBCp-FEgRvbh6wN8Pkl0FRrq3fpj94D5XMLC1oyfS2PKuR0Gc-QsfDLTnxylULs0xImN7pyDA34AlXvxqknI-N9FSreg-ANpUqmVX5TIqZZ0hBNp-cudQJhXMS5pcWkmnIjByZXdbVYNWRvh17MeTzg5HSdta0iPA4xMnOu8aBlbFAKa1vPRabPAGq8AaZ3n2ARDoPQcoegI9TG6q9G9LcKGo1GIg9GWmUio9nbOO4Chcj94xdG5ccn4Lel60nqCp0QNLJPelmMkMSbsOxAVaqTUYsPx23QO8oY1NXMyaF1dmrqhZynCP5m8aWxso14ieyqdd2rHTT-bY1KkvVd-E7TcNcU3bIzgS-wEtXu8R6x7wsrAHqx6yaPkHXwQh-JIcToHV4zb7ALfe1Iy0yTOgVjz1Nj8jKB8me44LAfqqccrmDGv5x9i1v9GfAL4I_9JAZ4MXVBoavRXfgqn8sVtyavWjwHEHRkFIsUiCw_3IFcLWUlAGHkmcpPOhQqxVcQd_W4IJstqJ3mM4145YE6pKZ0L9MsWEWl0Gy6lfJ9FGNZ5T3us09LDIehRbzXcHBjXB0tMjYoLVNkgE6M4a64IiMgv9LOhL_IWGaACqOgsaToIclshCay5BNM9UVL59YfBlZebWKe91pLKlytXqGjzC0pbOdqzziFDp5_ueHS7oqMaT03BwukBYo7IABXUpp7fJprA-xJPruFxuyN8UJjoNlz3_KYugglE5-VDo7dZVCKm8FxP-OhjXL9eN0UfORuHqOTrC7c_yAEeTQJSpZcsSHbE_N0UzAWkpjyWgiby7SL-62ncBn3TBCCelWeMqw7Isf5TU__UpCBbUcNyzXRX5MuJnTviveU6fEVQbHT5_c8cuu09iKbJ_yfRp-FDZJT_3yPlefNlJrlI7mT9etXvSqJw-XdQ88wFQDyUxNRipQ9XfUDr72yN8ES_lY6u6AAOUIkJPTWHuNBiZODv4F-vcGQHDvvBIwmONRnvblxAkuOF7mU-fz-cNywnwDVFaqv-2-RJq5zyBxrsaKNxJqph0rKGNR-qitYv3XVUjR-8aJynKUJF_Oayj9lLSZb7uh1VhzUnEjpODxWG-3Uu2ZnxCg8LcBzP-Gjl7l_P6lRpKKgl8ncxyGjd9teVh5wcy1VV4X5xOVmjFQ4_3RsRRz54VlmooOwcv177pDmkpztQfeNHD_UkRfj5xJKfu6dBIIalxo1l-X5rMKC157U8Bg-pBIrdNU-gBdvL_rSq9wbiz2noiliB6kDSH72RAAQ84ai1EUodS8MJFB6lqwTgDmIzPIAdLHKblAIsadwZvXxPg0hzNvpbLoHZAQEeVsgwPnhaS1MILBEX1gk0xjJcRE9ZsawAgBKTTDmujBrtcviOkSfjlJwptmBeDG2NzBI95xxFhxGtB204Vs7jNBf1xnv96rk1RfW_VcfmY1q9HbnRrdkrTAa6qTL9Ll9x4-KAeDq275RBrWk0aVhkGWWWjsM4rhHbqsqoPchRe93VOqibe9M1Twx48re5CMfwr4gDf4UMAZQDai-BOxlwBZ5zXFRBhSmZSqRoEbLTyJr9uMszZmfAT-WW27u_26T23CBLNgGrwaoJVNVKu8LB7t0tQdMAUDdHZfmXqsH0ZWq3w81PRHobKIF7c7JQ-FB64kyEwS8luyZIwmuPqIEt37A7hCCnHyRqUsMa-WXfAq98d6RoSpWhcw19UbLh7bqhLVebeQ7e7Lzul_QFhOHqFaSo0XdaeyPVTzRguICjXZt1Yx7iakhCkXFayfxjkfNrs6_GsxfYiap1gJIfg0HN1It77TBWw0CJY7YRykHpjoIiIcblkL7vQa5rTgjtWMKkP5_Vcf534vxpxD62AEjMj0nD8R9C-FW9M6mJ8J9IMG9lNq4ZosDuRWGYn_GMBYxjTIMnaTuTDbJV-xBaMjuD3NgkzeMlX4dZVGozaH7284yviPy-qN5OC9k5g7eOvQ6-G1ySPG5DZcM4vRrd9OGlgGM75w_VV4MqFB14jZWjf3g7Ydl57kWklfEZ1Za2SiCwbu_dStaLw4_tz9mS28CdVafN9K_0OE1rJzLCntxjTHq3cY0YkwhUYF3oQ9o9oV481pKeXaXktoNbVc3-W5xQTMxbq9E1j_sAATTJ8iWW9Jtmj5QTGpMyLQNONY9sCslxJdR4d9GS_7w0o-J_OBu5ptweMVAPLkBxRJVvfTBxGqthff3zLtxYuj2HWFo_QNSbtPQKHd2Cg8lEPTVolIhgwix58nghlQCPRDeTEjDaTv0TBSQrKIyW3r39O9MV5VeejxfnZLO3yi5H-c3TbWrPrmmaQchUBBQr43oN0r1xK5SyCmjvsgFUtwgrPaIlHjY6tHsKzFB86-Hs5NMix8DxJFr69bpzOMjBDpXOHotgXAQfBa3j2cU1d1HAw8Idl7Jbr5H-M4SCy3549MQ5MrYRifGT_TVZxEnT4wBdKTA3nsX-TZOm-ZyP-6_0a0w4R6Qr0rYbH6EjsLydq09AqYuZklvMAP3Pfdk87wH4kLJb_WUq2GrJ3FrosYLtfnp3EXqAXCqnuJq_VsU1VwNvhixI_m4
' URL: http://www.plantuml.com/plantuml/uml/dHbTSzisyjs_Wezq8tkSvfhUUAwPKXAjif4bXQJgwsKo6eY2PJGamID1sMuc_kst04WGIz5EvbuiOh-nkrWirhzMWfIYpjAJwZFB2rAIp4bIKbMU42NRre862SyZzZTrBaxks8uw2IkJb9wSA2edObcT4i5uViFo7RztlfmupbEHafnUEYlvOzP_C7hVmEIdyukJmr-pTaybPMNaJNWkIfvMbvQE5jRm7YEKaBCp-FEgRvbh6wN8Pkl0FRrq3fpj94D5XMLC1oyfS2PKuR0Gc-QsfDLTnxylULs0xImN7pyDA34AlXvxqknI-N9FSreg-ANpUqmVX5TIqZZ0hBNp-cudQJhXMS5pcWkmnIjByZXdbVYNWRvh17MeTzg5HSdta0iPA4xMnOu8aBlbFAKa1vPRabPAGq8AaZ3n2ARDoPQcoegI9TG6q9G9LcKGo1GIg9GWmUio9nbOO4Chcj94xdG5ccn4Lel60nqCp0QNLJPelmMkMSbsOxAVaqTUYsPx23QO8oY1NXMyaF1dmrqhZynCP5m8aWxso14ieyqdd2rHTT-bY1KkvVd-E7TcNcU3bIzgS-wEtXu8R6x7wsrAHqx6yaPkHXwQh-JIcToHV4zb7ALfe1Iy0yTOgVjz1Nj8jKB8me44LAfqqccrmDGv5x9i1v9GfAL4I_9JAZ4MXVBoavRXfgqn8sVtyavWjwHEHRkFIsUiCw_3IFcLWUlAGHkmcpPOhQqxVcQd_W4IJstqJ3mM4145YE6pKZ0L9MsWEWl0Gy6lfJ9FGNZ5T3us09LDIehRbzXcHBjXB0tMjYoLVNkgE6M4a64IiMgv9LOhL_IWGaACqOgsaToIclshCay5BNM9UVL59YfBlZebWKe91pLKlytXqGjzC0pbOdqzziFDp5_ueHS7oqMaT03BwukBYo7IABXUpp7fJprA-xJPruFxuyN8UJjoNlz3_KYugglE5-VDo7dZVCKm8FxP-OhjXL9eN0UfORuHqOTrC7c_yAEeTQJSpZcsSHbE_N0UzAWkpjyWgiby7SL-62ncBn3TBCCelWeMqw7Isf5TU__UpCBbUcNyzXRX5MuJnTviveU6fEVQbHT5_c8cuu09iKbJ_yfRp-FDZJT_3yPlefNlJrlI7mT9etXvSqJw-XdQ88wFQDyUxNRipQ9XfUDr72yN8ES_lY6u6AAOUIkJPTWHuNBiZODv4F-vcGQHDvvBIwmONRnvblxAkuOF7mU-fz-cNywnwDVFaqv-2-RJq5zyBxrsaKNxJqph0rKGNR-qitYv3XVUjR-8aJynKUJF_Oayj9lLSZb7uh1VhzUnEjpODxWG-3Uu2ZnxCg8LcBzP-Gjl7l_P6lRpKKgl8ncxyGjd9teVh5wcy1VV4X5xOVmjFQ4_3RsRRz54VlmooOwcv177pDmkpztQfeNHD_UkRfj5xJKfu6dBIIalxo1l-X5rMKC157U8Bg-pBIrdNU-gBdvL_rSq9wbiz2noiliB6kDSH72RAAQ84ai1EUodS8MJFB6lqwTgDmIzPIAdLHKblAIsadwZvXxPg0hzNvpbLoHZAQEeVsgwPnhaS1MILBEX1gk0xjJcRE9ZsawAgBKTTDmujBrtcviOkSfjlJwptmBeDG2NzBI95xxFhxGtB204Vs7jNBf1xnv96rk1RfW_VcfmY1q9HbnRrdkrTAa6qTL9Ll9x4-KAeDq275RBrWk0aVhkGWWWjsM4rhHbqsqoPchRe93VOqibe9M1Twx48re5CMfwr4gDf4UMAZQDai-BOxlwBZ5zXFRBhSmZSqRoEbLTyJr9uMszZmfAT-WW27u_26T23CBLNgGrwaoJVNVKu8LB7t0tQdMAUDdHZfmXqsH0ZWq3w81PRHobKIF7c7JQ-FB64kyEwS8luyZIwmuPqIEt37A7hCCnHyRqUsMa-WXfAq98d6RoSpWhcw19UbLh7bqhLVebeQ7e7Lzul_QFhOHqFaSo0XdaeyPVTzRguICjXZt1Yx7iakhCkXFayfxjkfNrs6_GsxfYiap1gJIfg0HN1It77TBWw0CJY7YRykHpjoIiIcblkL7vQa5rTgjtWMKkP5_Vcf534vxpxD62AEjMj0nD8R9C-FW9M6mJ8J9IMG9lNq4ZosDuRWGYn_GMBYxjTIMnaTuTDbJV-xBaMjuD3NgkzeMlX4dZVGozaH7284yviPy-qN5OC9k5g7eOvQ6-G1ySPG5DZcM4vRrd9OGlgGM75w_VV4MqFB14jZWjf3g7Ydl57kWklfEZ1Za2SiCwbu_dStaLw4_tz9mS28CdVafN9K_0OE1rJzLCntxjTHq3cY0YkwhUYF3oQ9o9oV481pKeXaXktoNbVc3-W5xQTMxbq9E1j_sAATTJ8iWW9Jtmj5QTGpMyLQNONY9sCslxJdR4d9GS_7w0o-J_OBu5ptweMVAPLkBxRJVvfTBxGqthff3zLtxYuj2HWFo_QNSbtPQKHd2Cg8lEPTVolIhgwix58nghlQCPRDeTEjDaTv0TBSQrKIyW3r39O9MV5VeejxfnZLO3yi5H-c3TbWrPrmmaQchUBBQr43oN0r1xK5SyCmjvsgFUtwgrPaIlHjY6tHsKzFB86-Hs5NMix8DxJFr69bpzOMjBDpXOHotgXAQfBa3j2cU1d1HAw8Idl7Jbr5H-M4SCy3549MQ5MrYRifGT_TVZxEnT4wBdKTA3nsX-TZOm-ZyP-6_0a0w4R6Qr0rYbH6EjsLydq09AqYuZklvMAP3Pfdk87wH4kLJb_WUq2GrJ3FrosYLtfnp3EXqAXCqnuJq_VsU1VwNvhixI_m4
' Generated on: 2025-11-27T19:59:12.717051877

@startuml
skinparam classAttributeIconSize 0
hide circle

class SimulationWindow {
  ~plane: Plane
  ~planeView: PlaneView = new PlaneView()
  ~simulationControls: SimulationControls = new SimulationControls()
  --
  +SimulationWindow(plane: Plane)
  -GUI(): void
  +setPlaneView(): void
  +replacePlane(plane: Plane): void
  +refreshPlaneView(groups: int[]): void
  +setPlane(): void
}

class SimulationControls {
  ~generation: JTextArea = new JTextArea()
  ~plane: Plane
  ~allComponents: ArrayList<Component> = new ArrayList<>()
  -programmaticUpdate: boolean = false
  ~capacity: JLabel
  ~price: JLabel
  ~elitism: Slider
  ~tournament: Slider
  ~selectionPool: Slider
  ~mutation: Slider
  ~newSims: Slider
  ~gbl: GridBagLayout = new GridBagLayout()
  --
  +SimulationControls()
  +populate(plane: Plane): void
  +updateGeneration(gens: int, time: int, stats: int, startTime: long): void
  +refreshGAControls(): void
  +slider(defval: double, min: int, max: int, c: ChangeListener, s: String): JPanel
  +reset(): void
}

class Slider {
  ~slider: JSlider
  ~reading: JLabel
  ~panel: JPanel
  ~label: JLabel
  --
  ~Slider(l: String, d: double, min: int, max: int, defaultListener: Boolean, defaultLabels: Boolean)
  ~setLabels(labels: String[]): void
}

class Event {
  -type: EventTypes
  -time: double
  -passenger: int
  -position: int
  --
  +Event(type: EventTypes, time: double, passenger: int, position: int)
  +getType(): EventTypes
  +getPassenger(): int
  +getTime(): double
  +getPosition(): int
}

class parameters {
  +{static} random: Random = new Random()
  +{static} NUMBER_GENERATIONS: int = 1000
  +{static} NUMBER_SIMULATIONS: int = 500
  +{static} plane: Plane = new Plane(20, 6, 14, 6, new int[] { 3, 3 }, new int[] { 0, 7 })
  +{static} allPassengers: Passenger
  +{static} QUICKNESS: double = 1.0
  +{static} ORDERLINESS: double = 0.3
  +{static} CLUSTERING: double = 0.3
  +{static} WORSTFIND: boolean = false
  +{static} MAX_GROUPS: int = 6
  +{static} GROUP_STAGGER: int = 600
  +{static} PASSENGER_STAGGER: int = 3
  +{static} DEFAULT_WALKING_SPEED: int = 2
  +{static} DEFAULT_STOWING_SPEED: int = 12
  +{static} DEFAULT_SITTING_SPEED: int = 6
  +{static} MAX_BAGS: int = 2
  +{static} BUTTON_SIZE: int = 20
  +{static} BUTTON_GAP: int = 5
  +{static} PROBABILITY_DISABLED: double = 0.03
  +{static} PROBABILITY_FAMILIES: double = 0.20
  +{static} PROBABILITY_OLD: double = 0.10
  +{static} PROBABILITY_CHILDREN: double = 0.10
  +{static} PROBABILITY_BAGS: double = 0.80
  +{static} ELITISM: double = 0.03
  +{static} TOURNAMENT_SIZE: int = 3
  +{static} SELECTION_POOL: double = 0.5
  +{static} MUTATION: double = 0.2
  +{static} NEW_SIMULATIONS: double = 0.3
  +{static} SPLIT_PENALTY: int = 700
  +{static} PAUSED: Boolean = false
  +{static} SKIP: Boolean = false
  +{static} END: Boolean = false
  +{static} STARTED: Boolean = false
  +{static} REDRAW: Boolean = false
  +{static} RESET: Boolean = false
  +{static} delay: double = 0.0
  --
  +reset(): void
}

class Simulation {
  ~duration: int = 0
  ~boardingInts: int
  ~length: int = 0
  ~numberGroups: int
  ~randomPenalty: int = 0
  ~adjacentSameGroupSeats: int
  ~avgDistance: double
  ~sdDistance: double
  ~fitnessScore: int = 0
  --
  +Simulation(numberGroups: int)
  +joinFamilies(): void
  +generateInitialGroups(): void
  +splitFamilies(): Boolean
  ~mutate(): void
  +simulateBoardingTime(): int
  +randomPenalty(boardingGroups: int[][]): void
  +getDuration(): int
  +getFitness(): int
  +setNumberGroups(num: int): void
  +getBoardingInts(): int[]
  +getNumberGroups(): int
  +setBoardingInts(bi: int[]): void
}

class Seat {
  ~row: int
  ~seat: int
  ~status: SeatStatus
  --
  +Seat(row: int, seat: int, status: SeatStatus)
  +getRow(): int
  +setRow(row: int): void
  +getSeat(): int
  +setSeat(seat: int): void
  +getStatus(): SeatStatus
  +setStatus(newStatus: SeatStatus): void
}

class Passenger {
  ~family: int = null
  ~walkingSpeed: double
  ~stowingSpeed: double
  ~sittingSpeed: double
  ~seat: Seat
  ~bags: int
  ~index: int
  --
  +Passenger()
  +Passenger(index: int, walkingSpeed: double, stowingSpeed: double, sittingSpeed: double, seat: Seat, bags: int)
  +setWalkingSpeed(walkingSpeed: double): void
  +setStowingSpeed(stowingSpeed: double): void
  +setSittingSpeed(sittingSpeed: double): void
  +getWalkingSpeed(): double
  +getStowingSpeed(): double
  +getSittingSpeed(): double
  +setSeat(seat: Seat): void
  +getSeat(): Seat
  +setFamily(family: int[]): void
  +getFamily(): int[]
  +getBags(): int
  +setBags(bags: int): void
  +getIndex(): int
}

class Plane {
  -seatingChart: Seat
  -length: int
  -width: int
  ~capacity: int
  -businessRows: int
  -seatsperBusinessRow: int
  -exitRows: int
  -blocks: int
  -aisles: int
  -aisle_indexes: int
  --
  +Plane(length: int, businessRows: int, economyRows: int, seatsPerRow: int, blocks: int[], exitRows: int[])
  +createSeatingChart(): void
  +seatsBeforeIndex(block: int, index: int): int
  +getSeatingChart(): Seat[][]
  +getLength(): int
  +getCapacity(): int
  +getWidth(): int
  +getAisles(): int[]
  +getSeatsperBusinessRow(): int
  +getBusinessRows(): int
  +getBlocks(): int[]
  +getExits(): int[]
}

class main {
  +{static} executor: ExecutorService = Executors.newFixedThreadPool(Runtime.getRuntime().availableProcessors())
  -{static} allSimulations: Simulation
  +{static} simulationWindow: SimulationWindow
  +{static} startTime: long = 0
  --
  +{static} main(args: String[]): void
  +{static} run(): void
  ~{static} generatePassengerData(): void
  ~{static} evolution(simulations: Simulation[]): Simulation[]
  ~{static} selection(simulations: Simulation[]): Simulation
  ~{static} crossover(simulations: Simulation[]): Simulation
  ~{static} findQuickest(simulations: Simulation[]): Simulation[]
}

class AisleQueue {
  -queue: int
  --
  +AisleQueue(size: int)
  +freeSpace(index: int): Boolean
  +push(passenger: int): int
  +remove(index: int): int
  +advance(index: int): void
  +print(): void
  +isEmpty(): Boolean
}

class PlaneView {
  ~plane: Plane
  ~seatingChart: Seat
  ~rows: int
  ~cols: int
  ~buttonGrid: JPanel
  ~passengers: Passenger
  ~groups: int
  --
  +PlaneView()
  +setPassengers(passengers: Passenger[]): void
  +setPlane(): void
  -createSeatButtons(buttonSize: int): void
  +updateButtons(groups: int[]): void
}

class SeatCell {
  +SeatCell(size: int)
  ~setCellColor(c: Color): void
  ~setToolTip(p: Passenger): void
}

SimulationWindow --> Plane
SimulationWindow --> PlaneView
SimulationWindow o-- SimulationControls
SimulationControls --> Plane
SimulationControls --> Slider
SimulationControls o-- Slider
parameters --> Plane
parameters o-- Passenger
Passenger --> Seat
Plane *-- Seat
main *-- Simulation
main --> SimulationWindow
PlaneView --> Plane
PlaneView --> Seat
PlaneView o-- Passenger
SeatCell ..> Passenger
@enduml